<svg width="40" height="40" viewBox="0 0 40 40" fill="none" xmlns="http://www.w3.org/2000/svg">
<path d="M25.2012 2.56375C24.1269 1.68875 22.065 1.25 20 1.25C17.9362 1.25 15.8744 1.68812 14.8 2.56312V15.9444H25.2019V2.56375H25.2012Z" fill="#ffa700"/>
<path d="M36.49 17.2335L36.8225 17.411C36.4938 10.986 33.5769 5.82658 26.2106 4.04346L26.2113 14.8703C30.4881 15.2928 34.1106 16.1341 36.49 17.2335Z" fill="#ffa700"/>
<path d="M13.7894 14.8703L13.7906 4.04346C6.42312 5.82658 3.50624 10.986 3.17749 17.4116L3.50999 17.2341C5.88999 16.1341 9.51249 15.2928 13.7894 14.8703Z" fill="#ffa700"/>
<path d="M36.25 22.1789V20.0002H38.75C38.75 19.1595 38.105 18.3652 36.9794 17.6495C35.515 17.2908 31.2756 16.3214 26.2113 15.8164V16.8895H13.7894V15.8164C8.72375 16.3214 4.48187 17.2902 3.02 17.6508C1.89437 18.3652 1.25 19.1595 1.25 20.0002H3.75V22.1789C2.81 22.6208 1.875 23.6189 1.875 25.6252C1.875 28.1133 3.31375 29.0664 4.415 29.3083C5.16938 34.5514 16.3025 38.7502 20 38.7502C23.6975 38.7502 34.8306 34.5514 35.585 29.3083C36.6862 29.0664 38.125 28.1133 38.125 25.6252C38.125 23.6189 37.19 22.6208 36.25 22.1789ZM35 28.1252H34.375V28.7502C34.375 33.1483 23.8056 37.5002 20 37.5002C16.1944 37.5002 5.625 33.1483 5.625 28.7502V28.1252H5C4.92375 28.1252 3.125 28.0964 3.125 25.6252C3.125 23.2289 4.81312 23.1289 5 23.1252H5.625V20.0002H34.375V23.1252H35C35.0762 23.1252 36.875 23.1539 36.875 25.6252C36.875 28.0214 35.1869 28.1214 35 28.1252Z" fill="#ffa700"/>
<path d="M15.625 24.0988C15.625 23.7538 15.5544 23.4282 15.4406 23.1225C16.0844 23.5894 16.6025 24.2175 16.875 25.035C16.875 20.0363 8.125 20.0363 8.125 24.4113C8.5325 23.3913 9.47625 22.7113 10.6019 22.3788C10.214 22.8683 10.002 23.4742 10 24.0988C10 24.8447 10.2963 25.5601 10.8238 26.0875C11.3512 26.615 12.0666 26.9113 12.8125 26.9113C13.5584 26.9113 14.2738 26.615 14.8012 26.0875C15.3287 25.5601 15.625 24.8447 15.625 24.0988Z" fill="#ffa700"/>
<path d="M23.125 25.035C23.3975 24.2175 23.9156 23.5894 24.5594 23.1225C24.4398 23.4342 24.3774 23.7649 24.375 24.0988C24.375 24.8447 24.6713 25.5601 25.1988 26.0875C25.7262 26.615 26.4416 26.9113 27.1875 26.9113C27.9334 26.9113 28.6488 26.615 29.1762 26.0875C29.7037 25.5601 30 24.8447 30 24.0988C29.9979 23.4742 29.786 22.8684 29.3981 22.3788C30.5237 22.7113 31.4675 23.3913 31.875 24.4113C31.875 20.0363 23.125 20.0363 23.125 25.035Z" fill="#ffa700"/>
<path d="M25.0625 31.0674H14.9381C14.3756 31.0674 14.3756 31.603 14.3756 31.603C14.3756 33.7468 17.1881 34.8174 20.0006 34.8174C22.8131 34.8174 25.6256 33.7468 25.6256 31.603C25.625 31.603 25.625 31.0674 25.0625 31.0674Z" fill="#ffa700"/>
</svg>
